<?xml version="1.0" standalone="no"?>
<!DOCTYPE svg PUBLIC "-//W3C//DTD SVG 20010904//EN"
 "http://www.w3.org/TR/2001/REC-SVG-20010904/DTD/svg10.dtd">
<svg version="1.0" xmlns="http://www.w3.org/2000/svg"
 width="512.000000pt" height="512.000000pt" viewBox="0 0 512.000000 512.000000"
 preserveAspectRatio="xMidYMid meet">
<metadata>
Created by potrace 1.11, written by Peter Selinger 2001-2013
</metadata>
<g transform="translate(0.000000,512.000000) scale(0.100000,-0.100000)"
fill="#000000" stroke="none">
<path d="M2365 5114 c-27 -2 -111 -13 -185 -24 -710 -105 -1347 -510 -1752
-1115 -156 -233 -302 -572 -362 -840 -49 -218 -60 -325 -60 -575 0 -250 11
-357 60 -575 81 -362 282 -768 522 -1055 236 -281 512 -500 833 -659 252 -126
480 -198 764 -243 186 -29 548 -32 725 -5 291 45 520 116 775 241 415 204 751
498 1010 886 153 228 300 569 359 835 49 218 60 325 60 575 0 250 -11 357 -60
575 -59 266 -206 607 -359 835 -259 388 -595 682 -1010 886 -253 123 -486 196
-765 239 -102 15 -452 27 -555 19z m401 -405 c504 -49 959 -264 1319 -624 565
-565 769 -1367 545 -2141 -199 -684 -770 -1255 -1454 -1454 -773 -224 -1576
-20 -2141 545 -565 565 -769 1367 -545 2141 200 688 773 1258 1465 1457 265
76 544 102 811 76z"/>
<path d="M2715 3474 l-710 -361 -3 -588 -2 -587 -28 7 c-15 3 -48 20 -73 36
-54 34 -119 38 -212 14 -206 -53 -322 -223 -287 -418 16 -87 41 -139 95 -192
83 -83 211 -119 349 -97 176 27 281 130 306 298 5 39 10 306 10 615 l0 546
258 125 c141 69 391 191 555 271 l297 146 0 -585 0 -584 -37 15 c-21 9 -47 25
-59 35 -16 16 -35 20 -90 20 -254 -1 -426 -196 -384 -436 28 -165 127 -259
296 -283 66 -10 172 -2 220 15 52 20 127 78 155 122 62 97 59 47 57 1188 l-3
1040 -710 -362z"/>
</g>
</svg>
